<svg id="SvgjsSvg1001" width="288" height="288" xmlns="http://www.w3.org/2000/svg" version="1.1" xmlns:xlink="http://www.w3.org/1999/xlink" xmlns:svgjs="http://svgjs.com/svgjs"><defs id="SvgjsDefs1002"></defs><g id="SvgjsG1008" transform="matrix(1,0,0,1,0,0)"><svg xmlns="http://www.w3.org/2000/svg" fill-rule="evenodd" stroke-linecap="round" stroke-linejoin="round" stroke-miterlimit="2" clip-rule="evenodd" viewBox="0 0 64 64" width="288" height="288"><path fill="none" stroke="#ffffff" stroke-width="2" d="M44.075 16.488c-.241-.879-1.04-1.488-1.951-1.488-4.236 0-16.012 0-20.248 0-.911 0-1.71.609-1.951 1.488-1.138 4.143-4.258 15.512-4.258 15.512l32.666 0c0 0-3.12-11.369-4.258-15.512zM52.907 38c-.078-.46-.205-.911-.379-1.346-.392-.981-.95-2.376-1.353-3.382-.307-.768-1.051-1.272-1.878-1.272-5.855 0-28.739 0-34.594 0-.827 0-1.571.504-1.878 1.272-.403 1.006-.961 2.401-1.353 3.382-.312.779-.472 1.61-.472 2.449l0 4.873c0 1.118.906 2.024 2.024 2.024 4.168 0 14.07 0 22.976 0" class="colorStroke222a33 svgStroke"></path><path fill="none" stroke="#ffffff" stroke-width="2" d="M11.583 37.583l4.323 0c.926 0 1.772.523 2.186 1.351.493.986 1.075 2.149 1.075 2.149M16 30.583c0 0-1.691-3.5-3.833-3.5M48.333 30.583c0 0 1.691-3.5 3.834-3.5M21.5 46.5l-7 0 0 3.68c0 .482.192.945.533 1.287.342.341.805.533 1.287.533 1.035 0 2.325 0 3.36 0 .482 0 .945-.192 1.287-.533.341-.342.533-.805.533-1.287 0-1.602 0-3.68 0-3.68zM56 41c0-1.657-1.343-3-3-3-2.859 0-7.141 0-10 0-1.657 0-3 1.343-3 3 0 2.02 0 4.728 0 7.051 0 2.953 1.732 5.631 4.425 6.841 1.849.832 3.575 1.608 3.575 1.608 0 0 1.726-.776 3.575-1.608 2.693-1.21 4.425-3.888 4.425-6.841l0-7.051z" class="colorStroke222a33 svgStroke"></path><path fill="none" stroke="#ffffff" stroke-width="2" d="M44.75,46.748l2.5,2l4,-3.5" class="colorStroke222a33 svgStroke"></path></svg></g></svg>