<?xml version="1.0" encoding="UTF-8" standalone="no"?>
<svg
   xmlns:dc="http://purl.org/dc/elements/1.1/"
   xmlns:cc="http://creativecommons.org/ns#"
   xmlns:rdf="http://www.w3.org/1999/02/22-rdf-syntax-ns#"
   xmlns:svg="http://www.w3.org/2000/svg"
   xmlns="http://www.w3.org/2000/svg"
   width="100%"
   height="100%"
   viewBox="0 0 64 64"
   version="1.1"
   xml:space="preserve"
   style="fill-rule:evenodd;clip-rule:evenodd;stroke-linecap:round;stroke-linejoin:round;stroke-miterlimit:2;"
   id="svg19">
  <metadata
   id="metadata25">
    <rdf:RDF>
      <cc:Work
   rdf:about="">
        <dc:format>image/svg+xml</dc:format>

        <dc:type
   rdf:resource="http://purl.org/dc/dcmitype/StillImage" />

      </cc:Work>

    </rdf:RDF>

  </metadata>

  <defs
   id="defs23" />

  
  <path
   d="M44.075,16.488c-0.241,-0.879 -1.04,-1.488 -1.951,-1.488c-4.236,0 -16.012,0 -20.248,0c-0.911,0 -1.71,0.609 -1.951,1.488c-1.138,4.143 -4.258,15.512 -4.258,15.512l32.666,0c0,0 -3.12,-11.369 -4.258,-15.512Z"
   style="fill:none;stroke:#222a33;stroke-width:2px;"
   id="path3" />

  <path
   d="M52.907,38c-0.078,-0.46 -0.205,-0.911 -0.379,-1.346c-0.392,-0.981 -0.95,-2.376 -1.353,-3.382c-0.307,-0.768 -1.051,-1.272 -1.878,-1.272c-5.855,0 -28.739,0 -34.594,0c-0.827,0 -1.571,0.504 -1.878,1.272c-0.403,1.006 -0.961,2.401 -1.353,3.382c-0.312,0.779 -0.472,1.61 -0.472,2.449l0,4.873c0,1.118 0.906,2.024 2.024,2.024c4.168,0 14.07,0 22.976,0"
   style="fill:none;stroke:#222a33;stroke-width:2px;"
   id="path5" />

  <path
   d="M11.583,37.583l4.323,0c0.926,0 1.772,0.523 2.186,1.351c0.493,0.986 1.075,2.149 1.075,2.149"
   style="fill:none;stroke:#222a33;stroke-width:2px;"
   id="path7" />

  <path
   d="M16,30.583c0,0 -1.691,-3.5 -3.833,-3.5"
   style="fill:none;stroke:#222a33;stroke-width:2px;"
   id="path9" />

  <path
   d="M48.333,30.583c0,0 1.691,-3.5 3.834,-3.5"
   style="fill:none;stroke:#222a33;stroke-width:2px;"
   id="path11" />

  <path
   d="M21.5,46.5l-7,0l0,3.68c0,0.482 0.192,0.945 0.533,1.287c0.342,0.341 0.805,0.533 1.287,0.533c1.035,0 2.325,0 3.36,0c0.482,0 0.945,-0.192 1.287,-0.533c0.341,-0.342 0.533,-0.805 0.533,-1.287c0,-1.602 0,-3.68 0,-3.68Z"
   style="fill:none;stroke:#222a33;stroke-width:2px;"
   id="path13" />

  <path
   d="M56,41c0,-1.657 -1.343,-3 -3,-3c-2.859,0 -7.141,0 -10,0c-1.657,0 -3,1.343 -3,3c0,2.02 0,4.728 0,7.051c0,2.953 1.732,5.631 4.425,6.841c1.849,0.832 3.575,1.608 3.575,1.608c0,0 1.726,-0.776 3.575,-1.608c2.693,-1.21 4.425,-3.888 4.425,-6.841l0,-7.051Z"
   style="fill:none;stroke:#222a33;stroke-width:2px;"
   id="path15" />

  <path
   d="M44.75,46.748l2.5,2l4,-3.5"
   style="fill:none;stroke:#222a33;stroke-width:2px;"
   id="path17" />

</svg>
