<svg xmlns="http://www.w3.org/2000/svg" width="2942.759" height="855" viewBox="0 0 2942.759 855">
  <g id="Grupo_1" data-name="Grupo 1" transform="translate(-371 -708)">
    <g id="logoNegro" transform="translate(2692.013 914.19)">
      <path id="path3" d="M391.755,34.7A26.782,26.782,0,0,0,365.926,15H97.867A26.782,26.782,0,0,0,72.038,34.7C56.972,89.548,15.667,240.06,15.667,240.06H448.125S406.82,89.548,391.755,34.7Z" transform="translate(57.118 0)" fill="none" stroke="#3a798d" stroke-linecap="round" stroke-linejoin="round" stroke-miterlimit="2" stroke-width="30" fill-rule="evenodd"/>
      <path id="path5" d="M565.8,111.433a87.246,87.246,0,0,0-5.017-17.819c-5.19-12.987-12.577-31.455-17.912-44.774A26.781,26.781,0,0,0,518.006,32H60.023A26.781,26.781,0,0,0,35.161,48.84C29.826,62.158,22.438,80.626,17.249,93.613A87.187,87.187,0,0,0,11,126.035v64.513a26.792,26.792,0,0,0,26.8,26.8H341.97" transform="translate(0 208.059)" fill="none" stroke="#3a798d" stroke-linecap="round" stroke-linejoin="round" stroke-miterlimit="2" stroke-width="30" fill-rule="evenodd"/>
      <path id="path7" d="M11.583,37.583H68.814a32.352,32.352,0,0,1,28.94,17.886c6.527,13.053,14.232,28.45,14.232,28.45" transform="translate(7.135 276.389)" fill="none" stroke="#3a798d" stroke-linecap="round" stroke-linejoin="round" stroke-miterlimit="2" stroke-width="30" fill-rule="evenodd"/>
      <path id="path9" d="M62.911,73.419S40.525,27.083,12.167,27.083" transform="translate(14.283 147.881)" fill="none" stroke="#3a798d" stroke-linecap="round" stroke-linejoin="round" stroke-miterlimit="2" stroke-width="30" fill-rule="evenodd"/>
      <path id="path11" d="M48.333,73.419S70.72,27.083,99.091,27.083" transform="translate(456.911 147.881)" fill="none" stroke="#3a798d" stroke-linecap="round" stroke-linejoin="round" stroke-miterlimit="2" stroke-width="30" fill-rule="evenodd"/>
      <path id="path13" d="M107.172,46.5H14.5V95.219a24.092,24.092,0,0,0,24.095,24.095H83.077a24.092,24.092,0,0,0,24.095-24.095Z" transform="translate(42.836 385.522)" fill="none" stroke="#3a798d" stroke-linecap="round" stroke-linejoin="round" stroke-miterlimit="2" stroke-width="30" fill-rule="evenodd"/>
      <path id="path15" d="M251.821,77.716A39.714,39.714,0,0,0,212.1,38H79.716A39.714,39.714,0,0,0,40,77.716v93.347A99.279,99.279,0,0,0,98.582,261.63c24.479,11.015,47.329,21.288,47.329,21.288s22.85-10.273,47.329-21.288a99.279,99.279,0,0,0,58.582-90.567Z" transform="translate(354.925 281.492)" fill="none" stroke="#3a798d" stroke-linecap="round" stroke-linejoin="round" stroke-miterlimit="2" stroke-width="30" fill-rule="evenodd"/>
      <path id="path17" d="M44.75,65.106l33.1,26.478L130.8,45.248" transform="translate(413.059 370.199)" fill="none" stroke="#3a798d" stroke-linecap="round" stroke-linejoin="round" stroke-miterlimit="2" stroke-width="30" fill-rule="evenodd"/>
    </g>
    <text id="TALLER" transform="translate(371 1402)" fill="#3a798d" font-size="643" font-family="YuGothicUI-Bold, Yu Gothic UI" font-weight="700"><tspan x="0" y="0">TALLER</tspan></text>
  </g>
</svg>
